<svg width="20" height="20" viewBox="0 0 20 20" fill="none" xmlns="http://www.w3.org/2000/svg">
<path d="M2.72103 2.05089L18.076 9.61689C18.1598 9.65815 18.2303 9.72203 18.2796 9.80129C18.3289 9.88056 18.355 9.97204 18.355 10.0654C18.355 10.1587 18.3289 10.2502 18.2796 10.3295C18.2303 10.4087 18.1598 10.4726 18.076 10.5139L2.72003 18.0799C2.634 18.1221 2.53764 18.1388 2.44242 18.1278C2.3472 18.1169 2.25713 18.0788 2.18295 18.0181C2.10877 17.9574 2.0536 17.8767 2.024 17.7855C1.99441 17.6943 1.99164 17.5966 2.01603 17.5039L3.53703 11.7589C3.56168 11.6659 3.61263 11.582 3.68375 11.5173C3.75488 11.4526 3.84316 11.4097 3.93803 11.3939L10.819 10.2469C10.86 10.2401 10.8987 10.2232 10.9315 10.1977C10.9643 10.1722 10.9903 10.1389 11.007 10.1009L11.025 10.0409C11.0344 9.98528 11.0246 9.92814 10.9974 9.87876C10.9702 9.82939 10.927 9.79066 10.875 9.76889L10.819 9.75289L3.90003 8.59989C3.80535 8.58388 3.71727 8.54095 3.64634 8.47622C3.57541 8.4115 3.52461 8.32771 3.50003 8.23489L2.01603 2.62789C1.99139 2.53513 1.99396 2.43723 2.02345 2.3459C2.05294 2.25456 2.10809 2.17364 2.18232 2.1128C2.25655 2.05196 2.34672 2.01377 2.44207 2.00279C2.53742 1.99182 2.63391 2.00851 2.72003 2.05089H2.72103Z" fill="#4270EC"/>
</svg>
