<svg width="104" height="26" viewBox="0 0 104 26" fill="none" xmlns="http://www.w3.org/2000/svg">
<path d="M21.6667 3.25H4.33333C4.04602 3.25 3.77047 3.36414 3.5673 3.5673C3.36414 3.77047 3.25 4.04602 3.25 4.33333V21.6667C3.25 21.954 3.36414 22.2295 3.5673 22.4327C3.77047 22.6359 4.04602 22.75 4.33333 22.75H13.6663V15.21H11.1334V12.2579H13.6663V10.0912C13.6663 7.5725 15.2046 6.19992 17.4579 6.19992C18.2152 6.19775 18.9735 6.23675 19.7275 6.31583V8.9375H18.1729C16.9509 8.9375 16.7126 9.52033 16.7126 10.3729V12.2525H19.6343L19.2552 15.2046H16.7115V22.75H21.6667C21.954 22.75 22.2295 22.6359 22.4327 22.4327C22.6359 22.2295 22.75 21.954 22.75 21.6667V4.33333C22.75 4.04602 22.6359 3.77047 22.4327 3.5673C22.2295 3.36414 21.954 3.25 21.6667 3.25Z" fill="black"/>
<path d="M60.8571 3.4375H45.1429C43.9598 3.4375 43 4.40332 43 5.59375V21.4062C43 22.5967 43.9598 23.5625 45.1429 23.5625H60.8571C62.0402 23.5625 63 22.5967 63 21.4062V5.59375C63 4.40332 62.0402 3.4375 60.8571 3.4375ZM58.6741 10.5711C58.683 10.6969 58.683 10.8271 58.683 10.9529C58.683 14.8477 55.7366 19.3354 50.3527 19.3354C48.692 19.3354 47.1518 18.8502 45.8571 18.0146C46.0938 18.0416 46.3214 18.0506 46.5625 18.0506C47.933 18.0506 49.192 17.5834 50.1964 16.7928C48.9107 16.7658 47.8304 15.9168 47.4598 14.7488C47.9107 14.8162 48.317 14.8162 48.7812 14.6949C47.442 14.4209 46.4375 13.235 46.4375 11.802V11.766C46.8259 11.9861 47.2812 12.1209 47.7589 12.1389C47.3573 11.8701 47.0281 11.5054 46.8007 11.0774C46.5732 10.6495 46.4546 10.1715 46.4554 9.68613C46.4554 9.13809 46.5982 8.63496 46.8527 8.19922C48.2946 9.98711 50.4598 11.1551 52.8884 11.2809C52.4732 9.28184 53.9598 7.66016 55.7455 7.66016C56.5893 7.66016 57.3482 8.01504 57.8839 8.59004C58.5446 8.46426 59.1786 8.21719 59.7411 7.88027C59.5223 8.56309 59.0625 9.13809 58.4554 9.50195C59.0446 9.43906 59.6161 9.27285 60.1429 9.04375C59.7455 9.63223 59.2455 10.1533 58.6741 10.5711Z" fill="black"/>
<g clip-path="url(#clip0_4_216)">
<path fill-rule="evenodd" clip-rule="evenodd" d="M88.8429 2.977C89.9182 2.9275 90.261 2.9165 93 2.9165C95.739 2.9165 96.0818 2.92842 97.1562 2.977C98.2305 3.02559 98.9638 3.197 99.6055 3.44542C100.277 3.69934 100.887 4.09625 101.391 4.60959C101.904 5.11284 102.3 5.7215 102.553 6.39434C102.803 7.036 102.973 7.76934 103.023 8.84184C103.072 9.91892 103.083 10.2618 103.083 12.9998C103.083 15.7388 103.071 16.0817 103.023 17.1569C102.974 18.2294 102.803 18.9628 102.553 19.6044C102.3 20.2773 101.904 20.887 101.391 21.391C100.887 21.9043 100.277 22.3003 99.6055 22.5533C98.9638 22.8027 98.2305 22.9732 97.158 23.0227C96.0818 23.0722 95.739 23.0832 93 23.0832C90.261 23.0832 89.9182 23.0713 88.8429 23.0227C87.7704 22.9741 87.0371 22.8027 86.3954 22.5533C85.7225 22.3003 85.1128 21.9037 84.6088 21.391C84.0958 20.8874 83.6989 20.2781 83.4456 19.6053C83.1972 18.9637 83.0267 18.2303 82.9772 17.1578C82.9277 16.0808 82.9167 15.7379 82.9167 12.9998C82.9167 10.2608 82.9286 9.918 82.9772 8.84367C83.0257 7.76934 83.1972 7.036 83.4456 6.39434C83.6992 5.72158 84.0965 5.11221 84.6097 4.60867C85.113 4.0958 85.7221 3.69883 86.3945 3.44542C87.0362 3.197 87.7695 3.0265 88.842 2.977H88.8429ZM97.0746 4.792C96.0112 4.74342 95.6922 4.73334 93 4.73334C90.3077 4.73334 89.9887 4.74342 88.9254 4.792C87.9418 4.83692 87.4083 5.001 87.0527 5.13942C86.5824 5.32275 86.246 5.54 85.8931 5.89292C85.5585 6.21838 85.3011 6.6146 85.1396 7.0525C85.0012 7.40817 84.8371 7.94167 84.7922 8.92525C84.7436 9.98859 84.7335 10.3076 84.7335 12.9998C84.7335 15.6921 84.7436 16.0111 84.7922 17.0744C84.8371 18.058 85.0012 18.5915 85.1396 18.9472C85.3009 19.3844 85.5585 19.7813 85.8931 20.1068C86.2185 20.4413 86.6154 20.6989 87.0527 20.8603C87.4083 20.9987 87.9418 21.1628 88.9254 21.2077C89.9887 21.2563 90.3068 21.2663 93 21.2663C95.6932 21.2663 96.0112 21.2563 97.0746 21.2077C98.0582 21.1628 98.5917 20.9987 98.9473 20.8603C99.4176 20.6769 99.754 20.4597 100.107 20.1068C100.441 19.7813 100.699 19.3844 100.86 18.9472C100.999 18.5915 101.163 18.058 101.208 17.0744C101.256 16.0111 101.266 15.6921 101.266 12.9998C101.266 10.3076 101.256 9.98859 101.208 8.92525C101.163 7.94167 100.999 7.40817 100.86 7.0525C100.677 6.58225 100.46 6.24584 100.107 5.89292C99.7814 5.5584 99.3852 5.30095 98.9473 5.13942C98.5917 5.001 98.0582 4.83692 97.0746 4.792ZM91.7121 16.1083C92.4313 16.4077 93.2323 16.4481 93.978 16.2226C94.7238 15.9971 95.3681 15.5197 95.801 14.8719C96.2338 14.2241 96.4284 13.4461 96.3514 12.6708C96.2744 11.8956 95.9306 11.1711 95.3787 10.6211C95.027 10.2695 94.6016 10.0003 94.1333 9.83289C93.665 9.66545 93.1654 9.60392 92.6704 9.65273C92.1755 9.70155 91.6975 9.8595 91.271 10.1152C90.8444 10.3709 90.4798 10.718 90.2035 11.1315C89.9272 11.545 89.746 12.0147 89.673 12.5066C89.5999 12.9986 89.6369 13.5006 89.7812 13.9766C89.9254 14.4525 90.1734 14.8906 90.5073 15.2592C90.8412 15.6278 91.2527 15.9178 91.7121 16.1083ZM89.3352 9.335C89.8164 8.85373 90.3878 8.47196 91.0166 8.2115C91.6454 7.95104 92.3194 7.81698 93 7.81698C93.6806 7.81698 94.3546 7.95104 94.9834 8.2115C95.6122 8.47196 96.1835 8.85373 96.6648 9.335C97.1461 9.81628 97.5279 10.3876 97.7883 11.0164C98.0488 11.6453 98.1828 12.3192 98.1828 12.9998C98.1828 13.6805 98.0488 14.3544 97.7883 14.9832C97.5279 15.612 97.1461 16.1834 96.6648 16.6647C95.6928 17.6366 94.3746 18.1827 93 18.1827C91.6254 18.1827 90.3071 17.6366 89.3352 16.6647C88.3632 15.6927 87.8171 14.3744 87.8171 12.9998C87.8171 11.6253 88.3632 10.307 89.3352 9.335ZM99.3323 8.58884C99.4516 8.47633 99.5471 8.34104 99.6131 8.19098C99.6791 8.04092 99.7144 7.87913 99.7168 7.71519C99.7192 7.55125 99.6887 7.38851 99.627 7.23658C99.5654 7.08465 99.4739 6.94664 99.358 6.83071C99.242 6.71477 99.104 6.62328 98.9521 6.56165C98.8002 6.50001 98.6374 6.46948 98.4735 6.47187C98.3095 6.47426 98.1477 6.50952 97.9977 6.57556C97.8476 6.6416 97.7123 6.73707 97.5998 6.85634C97.381 7.08828 97.2612 7.39637 97.2659 7.71519C97.2705 8.03401 97.3992 8.33848 97.6247 8.56394C97.8502 8.78941 98.1546 8.91813 98.4735 8.92278C98.7923 8.92743 99.1004 8.80764 99.3323 8.58884Z" fill="black"/>
</g>
<defs>
<clipPath id="clip0_4_216">
<rect width="22" height="22" fill="white" transform="translate(82 2)"/>
</clipPath>
</defs>
</svg>
